<svg width="29" height="36" viewBox="0 0 29 36" fill="none" xmlns="http://www.w3.org/2000/svg">
<g clip-path="url(#clip0)">
<path d="M3.91913 24.0559C6.87408 27.3706 10.4687 29.6016 14.5 29.6016C18.5308 29.6016 22.1254 27.3712 25.0809 24.0559C27.496 21.3469 28.8215 18.6601 28.8768 18.547C29.0411 18.2109 29.0411 17.7891 28.8768 17.4529C28.8215 17.3398 27.496 14.6531 25.0809 11.944C22.1259 8.62938 18.5313 6.39844 14.5 6.39844C10.4692 6.39844 6.87459 8.62882 3.91913 11.9441C1.50409 14.6531 0.178475 17.3399 0.123193 17.453C-0.0410644 17.7891 -0.0410644 18.2109 0.123193 18.5471C0.178475 18.6601 1.50409 21.3469 3.91913 24.0559ZM5.0584 13.5091C8.01686 10.1905 11.1935 8.50781 14.5 8.50781C17.7924 8.50781 20.957 10.177 23.9059 13.4691C25.5279 15.2799 26.6375 17.1145 27.1321 18.0007C26.643 18.8786 25.5507 20.6859 23.9416 22.4909C20.9831 25.8095 17.8065 27.4922 14.5 27.4922C11.2076 27.4922 8.04303 25.823 5.09414 22.5309C3.47207 20.7201 2.36248 18.8855 1.86789 17.9993C2.35699 17.1213 3.4493 15.3141 5.0584 13.5091Z" fill="#404F6B"/>
<path d="M14.5 25.3828C17.7793 25.3828 20.4473 22.0709 20.4473 18C20.4473 13.9291 17.7793 10.6172 14.5 10.6172C11.2207 10.6172 8.55273 13.9291 8.55273 18C8.55273 22.0709 11.2207 25.3828 14.5 25.3828ZM14.5 12.7266C16.8424 12.7266 18.748 15.0922 18.748 18C18.748 20.9078 16.8424 23.2734 14.5 23.2734C12.1576 23.2734 10.252 20.9078 10.252 18C10.252 15.0922 12.1576 12.7266 14.5 12.7266Z" fill="#404F6B"/>
<path d="M14.5 21.1641C15.9054 21.1641 17.0488 19.7447 17.0488 18C17.0488 16.2553 15.9054 14.8359 14.5 14.8359C13.0946 14.8359 11.9512 16.2553 11.9512 18C11.9512 19.7447 13.0946 21.1641 14.5 21.1641ZM14.5 16.9453C14.9685 16.9453 15.3496 17.4184 15.3496 18C15.3496 18.5816 14.9685 19.0547 14.5 19.0547C14.0315 19.0547 13.6504 18.5816 13.6504 18C13.6504 17.4184 14.0315 16.9453 14.5 16.9453Z" fill="#404F6B"/>
</g>
<defs>
<clipPath id="clip0">
<rect width="29" height="36" fill="white"/>
</clipPath>
</defs>
</svg>
